# xmcd
#
# Track frame offsets:
#	150
#	9861
#	22731
#	52400
#	78410
#	115609
#	126820
#	161307
#	175767
#	200455
#	224743
#	250225
#
# Disc length: 4193 seconds
#
# Revision: 1
# Processed by: cddbd v1.5PL3 Copyright (c) Steve Scherf et al.
# Submitted via: audiograbber 1.82.01
#
DISCID=97105f0c
DTITLE=BB King - 1997-07-27 - Germany
DYEAR=1900
DGENRE=
TTITLE0=B B king - Opener
TTITLE1=B B king - Let The Good Times Roll
TTITLE2=B B king - Stormy Monday
TTITLE3=B B king - Whole Lot Of Loving
TTITLE4=B B king - Blues We Like
TTITLE5=B B king - Please Accept My Love
TTITLE6=B B king - Why I Sing The Blues
TTITLE7=B B king - All Over Again
TTITLE8=B B king - Catfish
TTITLE9=B B king - Early In The Morning
TTITLE10=B B king - Rock Me Baby
TTITLE11=B B king - The Thrill Is Gone
EXTD=
EXTT0=
EXTT1=
EXTT2=
EXTT3=
EXTT4=
EXTT5=
EXTT6=
EXTT7=
EXTT8=
EXTT9=
EXTT10=
EXTT11=
PLAYORDER=
